<svg xmlns="http://www.w3.org/2000/svg" viewBox="0 0 100 100"><path fill="#4285F4" d="M50 20 C67 20 78 28 82 35 L70 45 C67 40 60 35 50 35 C38 35 28 45 28 55 C28 65 38 75 50 75 C62 75 68 68 70 62 L50 62 L50 50 L85 50 C86 53 86 56 86 59 C86 78 72 95 50 95 C28 95 12 78 12 55 C12 32 28 20 50 20"/><path fill="#EA4335" d="M50 20 C67 20 78 28 82 35 L70 45 C67 40 60 35 50 35 C38 35 28 45 28 55 L12 55 C12 32 28 20 50 20"/><path fill="#FBBC05" d="M28 55 C28 65 38 75 50 75 L50 95 C28 95 12 78 12 55"/><path fill="#34A853" d="M50 75 C62 75 68 68 70 62 L50 62 L50 50 L85 50 C86 53 86 56 86 59 C86 78 72 95 50 95"/></svg>